<svg xmlns="http://www.w3.org/2000/svg" xmlns:xlink="http://www.w3.org/1999/xlink" aria-hidden="true" role="img" class="iconify iconify--logos" width="35.93" height="32" preserveAspectRatio="xMidYMid meet" viewBox="0 0 256 228"><path fill="#00D8FF" d="M210.483 61.622c-3.35-6.593-10.234-10.808-17.492-10.808H63.009c-7.258 0-14.142 4.215-17.492 10.808L2.34 174.41c-3.348 6.594-3.348 14.034 0 20.628c3.35 6.594 10.234 10.807 17.492 10.807h129.982c7.258 0 14.142-4.213 17.492-10.807l43.177-112.788c3.35-6.594 3.35-14.034 0-20.628z"></path><path fill="#00D8FF" d="M128 89.667c-21.177 0-38.333 17.156-38.333 38.333s17.156 38.333 38.333 38.333s38.333-17.156 38.333-38.333S149.177 89.667 128 89.667zm0 58.333c-11.03 0-20-8.97-20-20s8.97-20 20-20s20 8.97 20 20s-8.97 20-20 20z"></path><path fill="#00D8FF" d="M128 51.05c-2.76 0-5-2.24-5-5V5c0-2.76 2.24-5 5-5s5 2.24 5 5v41.05c0 2.76-2.24 5-5 5zm0 125.9c-2.76 0-5-2.24-5-5v-41.05c0-2.76 2.24-5 5-5s5 2.24 5 5V171.95c0 2.759-2.24 5-5 5zM77.02 77.02c-1.95-1.95-1.95-5.12 0-7.07l29.04-29.04c1.95-1.95 5.12-1.95 7.07 0s1.95 5.12 0 7.07l-29.04 29.04c-1.95 1.95-5.12 1.95-7.07 0zm101.96 101.96c-1.95-1.95-1.95-5.12 0-7.07l29.04-29.04c1.95-1.95 5.12-1.95 7.07 0s1.95 5.12 0 7.07l-29.04 29.04c-1.95 1.95-5.12 1.95-7.07 0zM77.02 178.98c-1.95 1.95-1.95 5.12 0 7.07l29.04 29.04c1.95 1.95 5.12 1.95 7.07 0s1.95-5.12 0-7.07l-29.04-29.04c-1.95-1.95-5.12-1.95-7.07 0zm101.96-101.96c1.95 1.95 1.95 5.12 0 7.07l-29.04 29.04c-1.95 1.95-5.12 1.95-7.07 0s-1.95-5.12 0-7.07l29.04-29.04c1.95-1.95 5.12-1.95 7.07 0z"></path></svg>
